# xmcd
#
# Track frame offsets: 
#        150
#        22277
#        38622
#        63941
#        85708
#        98063
#        111139
#        129583
#        155771
#        168203
#        191242
#        218395
#
# Disc length: 3245 seconds
#
# Revision: 0
# Processed by: cddbd v1.5.2PL0 Copyright (c) Steve Scherf et al.
# Submitted via: ExactAudioCopy v0.99pb1
#
DISCID=990cab0c
DTITLE=Little Joe Blue - Dirty Work Goin' on
DYEAR=1986
DGENRE=Blues
TTITLE0=Dirty Work Goin' on
TTITLE1=Me and my guitar
TTITLE2=If you left me love you
TTITLE3=You're breaking my heart
TTITLE4=Give me one hour in your garden
TTITLE5=Big leg woman
TTITLE6=You can help me if you want so
TTITLE7=She did it again
TTITLE8=I want to make love to you
TTITLE9=The thrill is gone
TTITLE10=Devil int he sky
TTITLE11=How could you do it to me
EXTD=
EXTT0=
EXTT1=
EXTT2=
EXTT3=
EXTT4=
EXTT5=
EXTT6=
EXTT7=
EXTT8=
EXTT9=
EXTT10=
EXTT11=
PLAYORDER=
